{"title":"Gold.2013.DVDRip.XviD.AC3.HORiZON-ArtSubs","uid":9786058,"size":1470224384,"categoryP":"video","categoryS":"movies","magnet":"?xt=urn:btih:109bc3189d6aeaa28a3818faf3887a90aa6a1e3f&amp;dn=Gold.2013.DVDRip.XviD.AC3.HORiZON-ArtSubs&amp;tr=udp%3A%2F%2Ftracker.openbittorrent.com%3A80&amp;tr=udp%3A%2F%2Fopen.demonii.com%3A1337&amp;tr=udp%3A%2F%2Ftracker.coppersurfer.tk%3A6969&amp;tr=udp%3A%2F%2Fexodus.desync.com%3A6969","seeders":6,"leechers":1,"uploader":"lletaif","files":1,"time":1395161842,"description":"Title:\nGold\n\nCountry:\nGermany/2013\n\n\nLanguage:\nGerman\n\n\nSubtitles:\nEnglish \n\n\nIMDB: &lt;a href=&quot;\nhttp://www.imdb.com/title/tt2338846/?ref_=nm_flmg_act_3&quot; rel=&quot;nofollow&quot; target=&quot;_NEW&quot;&gt;\nhttp://www.imdb.com/title/tt2338846/?ref_=nm_flmg_act_3&lt;/a&gt;\n\n\nTrivia:\nOfficial Selection Berlin International Film Festival 2013\n\n\n\nMedia Info:\n\nGeneral\nComplete name                            : Gold.2013.DVDRip.XviD.AC3.HORiZON-ArtSubs.avi\nFormat                                   : AVI\nFormat/Info                              : Audio Video Interleave\nFile size                                : 1.37 GiB\nDuration                                 : 1h 36mn\nOverall bit rate                         : 2 039 Kbps\n\nVideo\nID                                       : 0\nFormat                                   : MPEG-4 Visual\nFormat profile                           : Advanced Simple@L5\nFormat settings, BVOP                    : 1\nFormat settings, QPel                    : No\nFormat settings, GMC                     : No warppoints\nFormat settings, Matrix                  : Default (MPEG)\nCodec ID                                 : XVID\nCodec ID/Hint                            : XviD\nDuration                                 : 1h 36mn\nBit rate                                 : 1 582 Kbps\nWidth                                    : 720 pixels\nHeight                                   : 304 pixels\nDisplay aspect ratio                     : 2.35:1\nFrame rate                               : 25.000 fps\nColor space                              : YUV\nChroma subsampling                       : 4:2:0\nBit depth                                : 8 bits\nScan type                                : Progressive\nCompression mode                         : Lossy\nBits/(Pixel*Frame)                       : 0.289\nStream size                              : 1.06 GiB (78%)\nWriting library                          : XviD 1.2.1 (UTC 2008-12-04)\n\nAudio\nID                                       : 1\nFormat                                   : AC-3\nFormat/Info                              : Audio Coding 3\nMode extension                           : CM (complete main)\nFormat settings, Endianness              : Big\nCodec ID                                 : 2000\nDuration                                 : 1h 36mn\nBit rate mode                            : Constant\nBit rate                                 : 448 Kbps\nChannel count                            : 6 channels\nChannel positions                        : Front: L C R, Side: L R, LFE\nSampling rate                            : 48.0 KHz\nBit depth                                : 16 bits\nCompression mode                         : Lossy\nStream size                              : 308 MiB (22%)\nAlignment                                : Split accross interleaves\nInterleave, duration                     : 40 ms (1.00 video frame)\nInterleave, preload duration             : 500 ms\n\n","torrent":{"xt":"urn:btih:109bc3189d6aeaa28a3818faf3887a90aa6a1e3f","amp;dn":"Gold.2013.DVDRip.XviD.AC3.HORiZON-ArtSubs","amp;tr":["udp%3A%2F%2Ftracker.openbittorrent.com%3A80","udp%3A%2F%2Fopen.demonii.com%3A1337","udp%3A%2F%2Ftracker.coppersurfer.tk%3A6969","udp%3A%2F%2Fexodus.desync.com%3A6969"],"infoHash":"109bc3189d6aeaa28a3818faf3887a90aa6a1e3f","infoHashBuffer":{"type":"Buffer","data":[16,155,195,24,157,106,234,162,138,56,24,250,243,136,122,144,170,106,30,63]},"announce":[],"urlList":[]}}